<?xml version="1.0" encoding="utf-8"?>
    <svg xmlns="http://www.w3.org/2000/svg"
         xmlns:xlink="http://www.w3.org/1999/xlink" width="1000" height="1414" >
    <defs>
    <style type="text/css"><![CDATA[
    line, path {
      stroke: black;
      stroke-width: 4;
      stroke-linecap: square;
    }
    path {
      fill: none;
    }

    text {
      font: bold 24px Verdana, Helvetica, Arial, sans-serif;
    }

    ]]>
    </style>
    </defs>
    
<text x="228.0" y="36.0" text-anchor="middle">B</text>
<text x="260.0" y="36.0" text-anchor="middle">R</text>
<text x="292.0" y="36.0" text-anchor="middle">T</text>
<text x="324.0" y="36.0" text-anchor="middle">Q</text>
<text x="356.0" y="36.0" text-anchor="middle">I</text>
<text x="388.0" y="36.0" text-anchor="middle">O</text>
<text x="420.0" y="36.0" text-anchor="middle">R</text>
<text x="452.0" y="36.0" text-anchor="middle">E</text>
<text x="484.0" y="36.0" text-anchor="middle">U</text>
<text x="516.0" y="36.0" text-anchor="middle">T</text>
<text x="548.0" y="36.0" text-anchor="middle">D</text>
<text x="580.0" y="36.0" text-anchor="middle">X</text>
<text x="612.0" y="36.0" text-anchor="middle">S</text>
<text x="644.0" y="36.0" text-anchor="middle">Q</text>
<text x="676.0" y="36.0" text-anchor="middle">U</text>
<text x="708.0" y="36.0" text-anchor="middle">A</text>
<text x="740.0" y="36.0" text-anchor="middle">S</text>
<text x="772.0" y="36.0" text-anchor="middle">H</text>
<text x="228.0" y="68.0" text-anchor="middle">K</text>
<text x="260.0" y="68.0" text-anchor="middle">T</text>
<text x="292.0" y="68.0" text-anchor="middle">U</text>
<text x="324.0" y="68.0" text-anchor="middle">X</text>
<text x="356.0" y="68.0" text-anchor="middle">P</text>
<text x="388.0" y="68.0" text-anchor="middle">T</text>
<text x="420.0" y="68.0" text-anchor="middle">N</text>
<text x="452.0" y="68.0" text-anchor="middle">Y</text>
<text x="484.0" y="68.0" text-anchor="middle">Y</text>
<text x="516.0" y="68.0" text-anchor="middle">O</text>
<text x="548.0" y="68.0" text-anchor="middle">R</text>
<text x="580.0" y="68.0" text-anchor="middle">H</text>
<text x="612.0" y="68.0" text-anchor="middle">P</text>
<text x="644.0" y="68.0" text-anchor="middle">K</text>
<text x="676.0" y="68.0" text-anchor="middle">I</text>
<text x="708.0" y="68.0" text-anchor="middle">P</text>
<text x="740.0" y="68.0" text-anchor="middle">X</text>
<text x="772.0" y="68.0" text-anchor="middle">H</text>
<text x="228.0" y="100.0" text-anchor="middle">T</text>
<text x="260.0" y="100.0" text-anchor="middle">O</text>
<text x="292.0" y="100.0" text-anchor="middle">I</text>
<text x="324.0" y="100.0" text-anchor="middle">L</text>
<text x="356.0" y="100.0" text-anchor="middle">S</text>
<text x="388.0" y="100.0" text-anchor="middle">P</text>
<text x="420.0" y="100.0" text-anchor="middle">Z</text>
<text x="452.0" y="100.0" text-anchor="middle">I</text>
<text x="484.0" y="100.0" text-anchor="middle">B</text>
<text x="516.0" y="100.0" text-anchor="middle">R</text>
<text x="548.0" y="100.0" text-anchor="middle">L</text>
<text x="580.0" y="100.0" text-anchor="middle">C</text>
<text x="612.0" y="100.0" text-anchor="middle">U</text>
<text x="644.0" y="100.0" text-anchor="middle">L</text>
<text x="676.0" y="100.0" text-anchor="middle">I</text>
<text x="708.0" y="100.0" text-anchor="middle">F</text>
<text x="740.0" y="100.0" text-anchor="middle">J</text>
<text x="772.0" y="100.0" text-anchor="middle">J</text>
<text x="228.0" y="132.0" text-anchor="middle">E</text>
<text x="260.0" y="132.0" text-anchor="middle">M</text>
<text x="292.0" y="132.0" text-anchor="middle">Z</text>
<text x="324.0" y="132.0" text-anchor="middle">R</text>
<text x="356.0" y="132.0" text-anchor="middle">R</text>
<text x="388.0" y="132.0" text-anchor="middle">H</text>
<text x="420.0" y="132.0" text-anchor="middle">J</text>
<text x="452.0" y="132.0" text-anchor="middle">C</text>
<text x="484.0" y="132.0" text-anchor="middle">O</text>
<text x="516.0" y="132.0" text-anchor="middle">A</text>
<text x="548.0" y="132.0" text-anchor="middle">B</text>
<text x="580.0" y="132.0" text-anchor="middle">B</text>
<text x="612.0" y="132.0" text-anchor="middle">M</text>
<text x="644.0" y="132.0" text-anchor="middle">Z</text>
<text x="676.0" y="132.0" text-anchor="middle">D</text>
<text x="708.0" y="132.0" text-anchor="middle">U</text>
<text x="740.0" y="132.0" text-anchor="middle">Z</text>
<text x="772.0" y="132.0" text-anchor="middle">H</text>
<text x="228.0" y="164.0" text-anchor="middle">D</text>
<text x="260.0" y="164.0" text-anchor="middle">A</text>
<text x="292.0" y="164.0" text-anchor="middle">P</text>
<text x="324.0" y="164.0" text-anchor="middle">I</text>
<text x="356.0" y="164.0" text-anchor="middle">H</text>
<text x="388.0" y="164.0" text-anchor="middle">L</text>
<text x="420.0" y="164.0" text-anchor="middle">F</text>
<text x="452.0" y="164.0" text-anchor="middle">H</text>
<text x="484.0" y="164.0" text-anchor="middle">M</text>
<text x="516.0" y="164.0" text-anchor="middle">N</text>
<text x="548.0" y="164.0" text-anchor="middle">V</text>
<text x="580.0" y="164.0" text-anchor="middle">E</text>
<text x="612.0" y="164.0" text-anchor="middle">P</text>
<text x="644.0" y="164.0" text-anchor="middle">Z</text>
<text x="676.0" y="164.0" text-anchor="middle">X</text>
<text x="708.0" y="164.0" text-anchor="middle">O</text>
<text x="740.0" y="164.0" text-anchor="middle">E</text>
<text x="772.0" y="164.0" text-anchor="middle">N</text>
<text x="228.0" y="196.0" text-anchor="middle">K</text>
<text x="260.0" y="196.0" text-anchor="middle">T</text>
<text x="292.0" y="196.0" text-anchor="middle">A</text>
<text x="324.0" y="196.0" text-anchor="middle">P</text>
<text x="356.0" y="196.0" text-anchor="middle">P</text>
<text x="388.0" y="196.0" text-anchor="middle">L</text>
<text x="420.0" y="196.0" text-anchor="middle">E</text>
<text x="452.0" y="196.0" text-anchor="middle">C</text>
<text x="484.0" y="196.0" text-anchor="middle">D</text>
<text x="516.0" y="196.0" text-anchor="middle">G</text>
<text x="548.0" y="196.0" text-anchor="middle">S</text>
<text x="580.0" y="196.0" text-anchor="middle">E</text>
<text x="612.0" y="196.0" text-anchor="middle">K</text>
<text x="644.0" y="196.0" text-anchor="middle">R</text>
<text x="676.0" y="196.0" text-anchor="middle">W</text>
<text x="708.0" y="196.0" text-anchor="middle">S</text>
<text x="740.0" y="196.0" text-anchor="middle">F</text>
<text x="772.0" y="196.0" text-anchor="middle">O</text>
<text x="228.0" y="228.0" text-anchor="middle">X</text>
<text x="260.0" y="228.0" text-anchor="middle">O</text>
<text x="292.0" y="228.0" text-anchor="middle">B</text>
<text x="324.0" y="228.0" text-anchor="middle">S</text>
<text x="356.0" y="228.0" text-anchor="middle">U</text>
<text x="388.0" y="228.0" text-anchor="middle">S</text>
<text x="420.0" y="228.0" text-anchor="middle">J</text>
<text x="452.0" y="228.0" text-anchor="middle">H</text>
<text x="484.0" y="228.0" text-anchor="middle">F</text>
<text x="516.0" y="228.0" text-anchor="middle">E</text>
<text x="548.0" y="228.0" text-anchor="middle">I</text>
<text x="580.0" y="228.0" text-anchor="middle">T</text>
<text x="612.0" y="228.0" text-anchor="middle">I</text>
<text x="644.0" y="228.0" text-anchor="middle">Q</text>
<text x="676.0" y="228.0" text-anchor="middle">R</text>
<text x="708.0" y="228.0" text-anchor="middle">R</text>
<text x="740.0" y="228.0" text-anchor="middle">D</text>
<text x="772.0" y="228.0" text-anchor="middle">L</text>
<text x="228.0" y="260.0" text-anchor="middle">T</text>
<text x="260.0" y="260.0" text-anchor="middle">E</text>
<text x="292.0" y="260.0" text-anchor="middle">E</text>
<text x="324.0" y="260.0" text-anchor="middle">M</text>
<text x="356.0" y="260.0" text-anchor="middle">B</text>
<text x="388.0" y="260.0" text-anchor="middle">S</text>
<text x="420.0" y="260.0" text-anchor="middle">M</text>
<text x="452.0" y="260.0" text-anchor="middle">N</text>
<text x="484.0" y="260.0" text-anchor="middle">A</text>
<text x="516.0" y="260.0" text-anchor="middle">S</text>
<text x="548.0" y="260.0" text-anchor="middle">K</text>
<text x="580.0" y="260.0" text-anchor="middle">R</text>
<text x="612.0" y="260.0" text-anchor="middle">N</text>
<text x="644.0" y="260.0" text-anchor="middle">E</text>
<text x="676.0" y="260.0" text-anchor="middle">E</text>
<text x="708.0" y="260.0" text-anchor="middle">S</text>
<text x="740.0" y="260.0" text-anchor="middle">A</text>
<text x="772.0" y="260.0" text-anchor="middle">B</text>
<text x="228.0" y="292.0" text-anchor="middle">M</text>
<text x="260.0" y="292.0" text-anchor="middle">S</text>
<text x="292.0" y="292.0" text-anchor="middle">Z</text>
<text x="324.0" y="292.0" text-anchor="middle">G</text>
<text x="356.0" y="292.0" text-anchor="middle">N</text>
<text x="388.0" y="292.0" text-anchor="middle">N</text>
<text x="420.0" y="292.0" text-anchor="middle">O</text>
<text x="452.0" y="292.0" text-anchor="middle">J</text>
<text x="484.0" y="292.0" text-anchor="middle">E</text>
<text x="516.0" y="292.0" text-anchor="middle">T</text>
<text x="548.0" y="292.0" text-anchor="middle">L</text>
<text x="580.0" y="292.0" text-anchor="middle">S</text>
<text x="612.0" y="292.0" text-anchor="middle">P</text>
<text x="644.0" y="292.0" text-anchor="middle">B</text>
<text x="676.0" y="292.0" text-anchor="middle">U</text>
<text x="708.0" y="292.0" text-anchor="middle">F</text>
<text x="740.0" y="292.0" text-anchor="middle">L</text>
<text x="772.0" y="292.0" text-anchor="middle">Z</text>
<text x="228.0" y="324.0" text-anchor="middle">A</text>
<text x="260.0" y="324.0" text-anchor="middle">K</text>
<text x="292.0" y="324.0" text-anchor="middle">O</text>
<text x="324.0" y="324.0" text-anchor="middle">O</text>
<text x="356.0" y="324.0" text-anchor="middle">O</text>
<text x="388.0" y="324.0" text-anchor="middle">M</text>
<text x="420.0" y="324.0" text-anchor="middle">M</text>
<text x="452.0" y="324.0" text-anchor="middle">C</text>
<text x="484.0" y="324.0" text-anchor="middle">Z</text>
<text x="516.0" y="324.0" text-anchor="middle">K</text>
<text x="548.0" y="324.0" text-anchor="middle">E</text>
<text x="580.0" y="324.0" text-anchor="middle">P</text>
<text x="612.0" y="324.0" text-anchor="middle">M</text>
<text x="644.0" y="324.0" text-anchor="middle">G</text>
<text x="676.0" y="324.0" text-anchor="middle">F</text>
<text x="708.0" y="324.0" text-anchor="middle">G</text>
<text x="740.0" y="324.0" text-anchor="middle">C</text>
<text x="772.0" y="324.0" text-anchor="middle">U</text>
<text x="228.0" y="356.0" text-anchor="middle">Q</text>
<text x="260.0" y="356.0" text-anchor="middle">N</text>
<text x="292.0" y="356.0" text-anchor="middle">L</text>
<text x="324.0" y="356.0" text-anchor="middle">X</text>
<text x="356.0" y="356.0" text-anchor="middle">E</text>
<text x="388.0" y="356.0" text-anchor="middle">M</text>
<text x="420.0" y="356.0" text-anchor="middle">U</text>
<text x="452.0" y="356.0" text-anchor="middle">E</text>
<text x="484.0" y="356.0" text-anchor="middle">E</text>
<text x="516.0" y="356.0" text-anchor="middle">I</text>
<text x="548.0" y="356.0" text-anchor="middle">E</text>
<text x="580.0" y="356.0" text-anchor="middle">U</text>
<text x="612.0" y="356.0" text-anchor="middle">A</text>
<text x="644.0" y="356.0" text-anchor="middle">C</text>
<text x="676.0" y="356.0" text-anchor="middle">Q</text>
<text x="708.0" y="356.0" text-anchor="middle">A</text>
<text x="740.0" y="356.0" text-anchor="middle">A</text>
<text x="772.0" y="356.0" text-anchor="middle">C</text>
<text x="228.0" y="388.0" text-anchor="middle">E</text>
<text x="260.0" y="388.0" text-anchor="middle">E</text>
<text x="292.0" y="388.0" text-anchor="middle">T</text>
<text x="324.0" y="388.0" text-anchor="middle">L</text>
<text x="356.0" y="388.0" text-anchor="middle">Q</text>
<text x="388.0" y="388.0" text-anchor="middle">T</text>
<text x="420.0" y="388.0" text-anchor="middle">H</text>
<text x="452.0" y="388.0" text-anchor="middle">G</text>
<text x="484.0" y="388.0" text-anchor="middle">R</text>
<text x="516.0" y="388.0" text-anchor="middle">P</text>
<text x="548.0" y="388.0" text-anchor="middle">C</text>
<text x="580.0" y="388.0" text-anchor="middle">R</text>
<text x="612.0" y="388.0" text-anchor="middle">Z</text>
<text x="644.0" y="388.0" text-anchor="middle">R</text>
<text x="676.0" y="388.0" text-anchor="middle">K</text>
<text x="708.0" y="388.0" text-anchor="middle">J</text>
<text x="740.0" y="388.0" text-anchor="middle">R</text>
<text x="772.0" y="388.0" text-anchor="middle">C</text>
<text x="228.0" y="420.0" text-anchor="middle">M</text>
<text x="260.0" y="420.0" text-anchor="middle">W</text>
<text x="292.0" y="420.0" text-anchor="middle">V</text>
<text x="324.0" y="420.0" text-anchor="middle">Y</text>
<text x="356.0" y="420.0" text-anchor="middle">T</text>
<text x="388.0" y="420.0" text-anchor="middle">G</text>
<text x="420.0" y="420.0" text-anchor="middle">A</text>
<text x="452.0" y="420.0" text-anchor="middle">R</text>
<text x="484.0" y="420.0" text-anchor="middle">Y</text>
<text x="516.0" y="420.0" text-anchor="middle">U</text>
<text x="548.0" y="420.0" text-anchor="middle">A</text>
<text x="580.0" y="420.0" text-anchor="middle">O</text>
<text x="612.0" y="420.0" text-anchor="middle">Y</text>
<text x="644.0" y="420.0" text-anchor="middle">A</text>
<text x="676.0" y="420.0" text-anchor="middle">X</text>
<text x="708.0" y="420.0" text-anchor="middle">Q</text>
<text x="740.0" y="420.0" text-anchor="middle">R</text>
<text x="772.0" y="420.0" text-anchor="middle">H</text>
<text x="228.0" y="452.0" text-anchor="middle">I</text>
<text x="260.0" y="452.0" text-anchor="middle">P</text>
<text x="292.0" y="452.0" text-anchor="middle">G</text>
<text x="324.0" y="452.0" text-anchor="middle">E</text>
<text x="356.0" y="452.0" text-anchor="middle">K</text>
<text x="388.0" y="452.0" text-anchor="middle">B</text>
<text x="420.0" y="452.0" text-anchor="middle">E</text>
<text x="452.0" y="452.0" text-anchor="middle">A</text>
<text x="484.0" y="452.0" text-anchor="middle">C</text>
<text x="516.0" y="452.0" text-anchor="middle">P</text>
<text x="548.0" y="452.0" text-anchor="middle">I</text>
<text x="580.0" y="452.0" text-anchor="middle">N</text>
<text x="612.0" y="452.0" text-anchor="middle">L</text>
<text x="644.0" y="452.0" text-anchor="middle">L</text>
<text x="676.0" y="452.0" text-anchor="middle">L</text>
<text x="708.0" y="452.0" text-anchor="middle">X</text>
<text x="740.0" y="452.0" text-anchor="middle">O</text>
<text x="772.0" y="452.0" text-anchor="middle">I</text>
<text x="228.0" y="484.0" text-anchor="middle">X</text>
<text x="260.0" y="484.0" text-anchor="middle">P</text>
<text x="292.0" y="484.0" text-anchor="middle">L</text>
<text x="324.0" y="484.0" text-anchor="middle">R</text>
<text x="356.0" y="484.0" text-anchor="middle">B</text>
<text x="388.0" y="484.0" text-anchor="middle">B</text>
<text x="420.0" y="484.0" text-anchor="middle">T</text>
<text x="452.0" y="484.0" text-anchor="middle">A</text>
<text x="484.0" y="484.0" text-anchor="middle">S</text>
<text x="516.0" y="484.0" text-anchor="middle">U</text>
<text x="548.0" y="484.0" text-anchor="middle">X</text>
<text x="580.0" y="484.0" text-anchor="middle">C</text>
<text x="612.0" y="484.0" text-anchor="middle">S</text>
<text x="644.0" y="484.0" text-anchor="middle">Y</text>
<text x="676.0" y="484.0" text-anchor="middle">I</text>
<text x="708.0" y="484.0" text-anchor="middle">T</text>
<text x="740.0" y="484.0" text-anchor="middle">T</text>
<text x="772.0" y="484.0" text-anchor="middle">N</text>
<text x="228.0" y="516.0" text-anchor="middle">Y</text>
<text x="260.0" y="516.0" text-anchor="middle">G</text>
<text x="292.0" y="516.0" text-anchor="middle">H</text>
<text x="324.0" y="516.0" text-anchor="middle">A</text>
<text x="356.0" y="516.0" text-anchor="middle">A</text>
<text x="388.0" y="516.0" text-anchor="middle">V</text>
<text x="420.0" y="516.0" text-anchor="middle">J</text>
<text x="452.0" y="516.0" text-anchor="middle">A</text>
<text x="484.0" y="516.0" text-anchor="middle">R</text>
<text x="516.0" y="516.0" text-anchor="middle">X</text>
<text x="548.0" y="516.0" text-anchor="middle">P</text>
<text x="580.0" y="516.0" text-anchor="middle">A</text>
<text x="612.0" y="516.0" text-anchor="middle">O</text>
<text x="644.0" y="516.0" text-anchor="middle">L</text>
<text x="676.0" y="516.0" text-anchor="middle">A</text>
<text x="708.0" y="516.0" text-anchor="middle">M</text>
<text x="740.0" y="516.0" text-anchor="middle">I</text>
<text x="772.0" y="516.0" text-anchor="middle">I</text>
<text x="228.0" y="548.0" text-anchor="middle">B</text>
<text x="260.0" y="548.0" text-anchor="middle">B</text>
<text x="292.0" y="548.0" text-anchor="middle">C</text>
<text x="324.0" y="548.0" text-anchor="middle">F</text>
<text x="356.0" y="548.0" text-anchor="middle">J</text>
<text x="388.0" y="548.0" text-anchor="middle">P</text>
<text x="420.0" y="548.0" text-anchor="middle">W</text>
<text x="452.0" y="548.0" text-anchor="middle">D</text>
<text x="484.0" y="548.0" text-anchor="middle">E</text>
<text x="516.0" y="548.0" text-anchor="middle">J</text>
<text x="548.0" y="548.0" text-anchor="middle">E</text>
<text x="580.0" y="548.0" text-anchor="middle">C</text>
<text x="612.0" y="548.0" text-anchor="middle">N</text>
<text x="644.0" y="548.0" text-anchor="middle">X</text>
<text x="676.0" y="548.0" text-anchor="middle">V</text>
<text x="708.0" y="548.0" text-anchor="middle">L</text>
<text x="740.0" y="548.0" text-anchor="middle">E</text>
<text x="772.0" y="548.0" text-anchor="middle">F</text>
<text x="228.0" y="580.0" text-anchor="middle">X</text>
<text x="260.0" y="580.0" text-anchor="middle">A</text>
<text x="292.0" y="580.0" text-anchor="middle">N</text>
<text x="324.0" y="580.0" text-anchor="middle">Z</text>
<text x="356.0" y="580.0" text-anchor="middle">F</text>
<text x="388.0" y="580.0" text-anchor="middle">T</text>
<text x="420.0" y="580.0" text-anchor="middle">E</text>
<text x="452.0" y="580.0" text-anchor="middle">T</text>
<text x="484.0" y="580.0" text-anchor="middle">P</text>
<text x="516.0" y="580.0" text-anchor="middle">P</text>
<text x="548.0" y="580.0" text-anchor="middle">M</text>
<text x="580.0" y="580.0" text-anchor="middle">Z</text>
<text x="612.0" y="580.0" text-anchor="middle">S</text>
<text x="644.0" y="580.0" text-anchor="middle">Z</text>
<text x="676.0" y="580.0" text-anchor="middle">N</text>
<text x="708.0" y="580.0" text-anchor="middle">H</text>
<text x="740.0" y="580.0" text-anchor="middle">W</text>
<text x="772.0" y="580.0" text-anchor="middle">O</text>
<text x="250.0" y="637.0" text-anchor="middle" class="wordlist">ASPARAGUS</text>
<text x="250.0" y="662.0" text-anchor="middle" class="wordlist">CUCUMBER</text>
<text x="250.0" y="687.0" text-anchor="middle" class="wordlist">TOMATOES</text>
<text x="250.0" y="712.0" text-anchor="middle" class="wordlist">ZUCCHINI</text>
<text x="250.0" y="737.0" text-anchor="middle" class="wordlist">BERRIES</text>
<text x="250.0" y="762.0" text-anchor="middle" class="wordlist">CABBAGE</text>
<text x="250.0" y="787.0" text-anchor="middle" class="wordlist">LETTUCE</text>
<text x="250.0" y="812.0" text-anchor="middle" class="wordlist">ORANGES</text>
<text x="250.0" y="837.0" text-anchor="middle" class="wordlist">PEPPERS</text>
<text x="250.0" y="862.0" text-anchor="middle" class="wordlist">PUMPKIN</text>
<text x="750.0" y="637.0" text-anchor="middle" class="wordlist">CARROT</text>
<text x="750.0" y="662.0" text-anchor="middle" class="wordlist">MELONS</text>
<text x="750.0" y="687.0" text-anchor="middle" class="wordlist">ONIONS</text>
<text x="750.0" y="712.0" text-anchor="middle" class="wordlist">SQUASH</text>
<text x="750.0" y="737.0" text-anchor="middle" class="wordlist">APPLE</text>
<text x="750.0" y="762.0" text-anchor="middle" class="wordlist">GRAPE</text>
<text x="750.0" y="787.0" text-anchor="middle" class="wordlist">LEMON</text>
<text x="750.0" y="812.0" text-anchor="middle" class="wordlist">BEET</text>
<text x="750.0" y="837.0" text-anchor="middle" class="wordlist">LIME</text>
<text x="750.0" y="862.0" text-anchor="middle" class="wordlist">PEAS</text>
</svg>
